<?xml version="1.0" standalone="no"?><svg xmlns="http://www.w3.org/2000/svg" viewBox="0 0 1440 320"><path fill="#dedbd9" fill-opacity="1" d="M0,320L34.3,309.3C68.6,299,137,277,206,266.7C274.3,256,343,256,411,218.7C480,181,549,107,617,106.7C685.7,107,754,181,823,192C891.4,203,960,149,1029,112C1097.1,75,1166,53,1234,42.7C1302.9,32,1371,32,1406,32L1440,32L1440,320L1405.7,320C1371.4,320,1303,320,1234,320C1165.7,320,1097,320,1029,320C960,320,891,320,823,320C754.3,320,686,320,617,320C548.6,320,480,320,411,320C342.9,320,274,320,206,320C137.1,320,69,320,34,320L0,320Z"></path></svg>